solid 3D Slicer output. SPACE=LPS
 facet normal 0.3589288815145481 -0.60950320169259686 -0.70687757436573784
  outer loop
   vertex -23.595663070678711 -176.21656799316406 -344.9730224609375
   vertex -23.749053955078125 -176.52435302734375 -344.7855224609375
   vertex -23.841646194458008 -176.34001159667969 -344.99148559570312
  endloop
 endfacet
 facet normal 0.48994765997919582 -0.61845269276391523 -0.61438388430522228
  outer loop
   vertex -23.749053955078125 -176.52435302734375 -344.7855224609375
   vertex -23.595663070678711 -176.21656799316406 -344.9730224609375
   vertex -23.484064102172852 -176.45979309082031 -344.63919067382812
  endloop
 endfacet
 facet normal -0.83630204848978507 0.22813067059335579 -0.49855318756017863
  outer loop
   vertex -23.807029724121094 -175.99766540527344 -345.0479736328125
   vertex -23.969781875610352 -176.22935485839844 -344.8809814453125
   vertex -23.985904693603516 -175.86836242675781 -344.68875122070312
  endloop
 endfacet
 facet normal -0.67778688769841688 -0.052475538113092163 -0.73338342820371605
  outer loop
   vertex -23.841646194458008 -176.34001159667969 -344.99148559570312
   vertex -23.969781875610352 -176.22935485839844 -344.8809814453125
   vertex -23.807029724121094 -175.99766540527344 -345.0479736328125
  endloop
 endfacet
 facet normal 0.16147224047422615 -0.17653812909500222 -0.97095880681513469
  outer loop
   vertex -23.841646194458008 -176.34001159667969 -344.99148559570312
   vertex -23.807029724121094 -175.99766540527344 -345.0479736328125
   vertex -23.595663070678711 -176.21656799316406 -344.9730224609375
  endloop
 endfacet
 facet normal -0.011767937289750044 -0.33406247479978946 -0.94247746847475589
  outer loop
   vertex -23.595663070678711 -176.21656799316406 -344.9730224609375
   vertex -23.807029724121094 -175.99766540527344 -345.0479736328125
   vertex -23.596940994262695 -175.91716003417969 -345.07913208007812
  endloop
 endfacet
 facet normal 0.6285501357117218 -0.51344301629815425 -0.58420971911756947
  outer loop
   vertex -23.321847915649414 -176.15946960449219 -344.72860717773438
   vertex -23.484064102172852 -176.45979309082031 -344.63919067382812
   vertex -23.595663070678711 -176.21656799316406 -344.9730224609375
  endloop
 endfacet
 facet normal 0.67462102396596058 -0.22301108299193367 -0.70367075460465445
  outer loop
   vertex -23.321847915649414 -176.15946960449219 -344.72860717773438
   vertex -23.595663070678711 -176.21656799316406 -344.9730224609375
   vertex -23.346712112426758 -175.79347229003906 -344.86843872070312
  endloop
 endfacet
 facet normal 0.6917926414541723 -0.23858472051933335 -0.68154256827036908
  outer loop
   vertex -23.346712112426758 -175.79347229003906 -344.86843872070312
   vertex -23.595663070678711 -176.21656799316406 -344.9730224609375
   vertex -23.596940994262695 -175.91716003417969 -345.07913208007812
  endloop
 endfacet
 facet normal 0.83125518477256422 -0.14822106201367874 -0.53576611927618856
  outer loop
   vertex -23.321847915649414 -176.15946960449219 -344.72860717773438
   vertex -23.346712112426758 -175.79347229003906 -344.86843872070312
   vertex -23.096340179443359 -175.85557556152344 -344.46279907226562
  endloop
 endfacet
 facet normal -0.89246933977321896 0.01765989257978498 -0.45076224970468104
  outer loop
   vertex -23.807029724121094 -175.99766540527344 -345.0479736328125
   vertex -23.985904693603516 -175.86836242675781 -344.68875122070312
   vertex -23.835433959960938 -175.65087890625 -344.9781494140625
  endloop
 endfacet
 facet normal -0.1708054120298497 0.18425822014291227 -0.96792273427742115
  outer loop
   vertex -23.835433959960938 -175.65087890625 -344.9781494140625
   vertex -23.745149612426758 -175.42082214355469 -344.95028686523438
   vertex -23.609075546264648 -175.5853271484375 -345.005615234375
  endloop
 endfacet
 facet normal -0.16998423192066672 0.18111343700095231 -0.96866056172223869
  outer loop
   vertex -23.835433959960938 -175.65087890625 -344.9781494140625
   vertex -23.609075546264648 -175.5853271484375 -345.005615234375
   vertex -23.807029724121094 -175.99766540527344 -345.0479736328125
  endloop
 endfacet
 facet normal -0.21944930375225968 0.20337409667558845 -0.95419127007326832
  outer loop
   vertex -23.807029724121094 -175.99766540527344 -345.0479736328125
   vertex -23.609075546264648 -175.5853271484375 -345.005615234375
   vertex -23.596940994262695 -175.91716003417969 -345.07913208007812
  endloop
 endfacet
 facet normal 0.69150622571165943 0.15535483832002872 -0.70546723099841646
  outer loop
   vertex -23.25861930847168 -175.24684143066406 -344.66171264648438
   vertex -23.077358245849609 -175.49324035644531 -344.53829956054688
   vertex -23.346712112426758 -175.79347229003906 -344.86843872070312
  endloop
 endfacet
 facet normal 0.57675683727184079 0.20601030109298163 -0.79051331835950911
  outer loop
   vertex -23.25861930847168 -175.24684143066406 -344.66171264648438
   vertex -23.346712112426758 -175.79347229003906 -344.86843872070312
   vertex -23.609075546264648 -175.5853271484375 -345.005615234375
  endloop
 endfacet
 facet normal 0.57255689795012366 0.19724189181633475 -0.79578529436176759
  outer loop
   vertex -23.609075546264648 -175.5853271484375 -345.005615234375
   vertex -23.346712112426758 -175.79347229003906 -344.86843872070312
   vertex -23.596940994262695 -175.91716003417969 -345.07913208007812
  endloop
 endfacet
 facet normal 0.82985966970212866 -0.15515483948359102 -0.53596632766125796
  outer loop
   vertex -23.096340179443359 -175.85557556152344 -344.46279907226562
   vertex -23.346712112426758 -175.79347229003906 -344.86843872070312
   vertex -23.077358245849609 -175.49324035644531 -344.53829956054688
  endloop
 endfacet
 facet normal 0.25520949998964676 0.49120587823450568 -0.83281744476379838
  outer loop
   vertex -23.609075546264648 -175.5853271484375 -345.005615234375
   vertex -23.745149612426758 -175.42082214355469 -344.95028686523438
   vertex -23.572378158569336 -175.13841247558594 -344.73077392578125
  endloop
 endfacet
 facet normal 0.34191723419360803 0.47174136022606733 -0.81274392893054148
  outer loop
   vertex -23.25861930847168 -175.24684143066406 -344.66171264648438
   vertex -23.609075546264648 -175.5853271484375 -345.005615234375
   vertex -23.572378158569336 -175.13841247558594 -344.73077392578125
  endloop
 endfacet
 facet normal -0.89496335621359246 -0.44588821664573214 -0.014976290975777113
  outer loop
   vertex -23.93678092956543 -176.45420837402344 -344.7774658203125
   vertex -23.87811279296875 -176.58534240722656 -344.379150390625
   vertex -24.041923522949219 -176.25506591796875 -344.42333984375
  endloop
 endfacet
 facet normal -0.31262321289079981 -0.77331400474238154 -0.55159058805524719
  outer loop
   vertex -23.93678092956543 -176.45420837402344 -344.7774658203125
   vertex -23.841646194458008 -176.34001159667969 -344.99148559570312
   vertex -23.749053955078125 -176.52435302734375 -344.7855224609375
  endloop
 endfacet
 facet normal -0.3484862878802768 -0.90434698815022563 -0.246401769845593
  outer loop
   vertex -23.93678092956543 -176.45420837402344 -344.7774658203125
   vertex -23.749053955078125 -176.52435302734375 -344.7855224609375
   vertex -23.87811279296875 -176.58534240722656 -344.379150390625
  endloop
 endfacet
 facet normal -0.31794311716856455 -0.91757334587819872 -0.23868667574672872
  outer loop
   vertex -23.87811279296875 -176.58534240722656 -344.379150390625
   vertex -23.749053955078125 -176.52435302734375 -344.7855224609375
   vertex -23.651912689208984 -176.64308166503906 -344.45849609375
  endloop
 endfacet
 facet normal 0.42623311807756281 -0.8023045046217181 -0.4178909079144677
  outer loop
   vertex -23.651912689208984 -176.64308166503906 -344.45849609375
   vertex -23.749053955078125 -176.52435302734375 -344.7855224609375
   vertex -23.484064102172852 -176.45979309082031 -344.63919067382812
  endloop
 endfacet
 facet normal 0.62843890527728385 -0.75600327611243567 -0.18309448064087946
  outer loop
   vertex -23.436826705932617 -176.53836059570312 -344.15264892578125
   vertex -23.651912689208984 -176.64308166503906 -344.45849609375
   vertex -23.484064102172852 -176.45979309082031 -344.63919067382812
  endloop
 endfacet
 facet normal -0.96238602628373515 -0.21669246015603186 -0.16388262301210749
  outer loop
   vertex -23.969781875610352 -176.22935485839844 -344.8809814453125
   vertex -23.93678092956543 -176.45420837402344 -344.7774658203125
   vertex -24.041923522949219 -176.25506591796875 -344.42333984375
  endloop
 endfacet
 facet normal -0.98742457629437042 0.037659813094626494 -0.15353971671056618
  outer loop
   vertex -23.969781875610352 -176.22935485839844 -344.8809814453125
   vertex -24.041923522949219 -176.25506591796875 -344.42333984375
   vertex -23.985904693603516 -175.86836242675781 -344.68875122070312
  endloop
 endfacet
 facet normal -0.98144639173660764 0.010785903369878313 -0.19143313306658585
  outer loop
   vertex -23.985904693603516 -175.86836242675781 -344.68875122070312
   vertex -24.041923522949219 -176.25506591796875 -344.42333984375
   vertex -24.075544357299805 -175.9215087890625 -344.232177734375
  endloop
 endfacet
 facet normal -0.76756182105348314 -0.35755861173306774 -0.53197809168854149
  outer loop
   vertex -23.841646194458008 -176.34001159667969 -344.99148559570312
   vertex -23.93678092956543 -176.45420837402344 -344.7774658203125
   vertex -23.969781875610352 -176.22935485839844 -344.8809814453125
  endloop
 endfacet
 facet normal 0.74270500252642835 -0.64596111670887169 -0.17641857873377567
  outer loop
   vertex -23.484064102172852 -176.45979309082031 -344.63919067382812
   vertex -23.218334197998047 -176.24488830566406 -344.307373046875
   vertex -23.436826705932617 -176.53836059570312 -344.15264892578125
  endloop
 endfacet
 facet normal 0.79834410428154401 -0.52108761877269072 -0.30185159386808963
  outer loop
   vertex -23.321847915649414 -176.15946960449219 -344.72860717773438
   vertex -23.218334197998047 -176.24488830566406 -344.307373046875
   vertex -23.484064102172852 -176.45979309082031 -344.63919067382812
  endloop
 endfacet
 facet normal 0.87247482743782256 -0.39061525260152985 -0.29361096696544675
  outer loop
   vertex -23.218334197998047 -176.24488830566406 -344.307373046875
   vertex -23.321847915649414 -176.15946960449219 -344.72860717773438
   vertex -23.096340179443359 -175.85557556152344 -344.46279907226562
  endloop
 endfacet
 facet normal 0.90511306908986378 -0.36837779436712598 -0.21229256411833808
  outer loop
   vertex -23.003429412841797 -175.90989685058594 -343.972412109375
   vertex -23.218334197998047 -176.24488830566406 -344.307373046875
   vertex -23.096340179443359 -175.85557556152344 -344.46279907226562
  endloop
 endfacet
 facet normal -0.91817458814924846 0.31427248536369623 -0.24122236757872054
  outer loop
   vertex -23.831871032714844 -175.40646362304688 -344.67327880859375
   vertex -23.835433959960938 -175.65087890625 -344.9781494140625
   vertex -23.985904693603516 -175.86836242675781 -344.68875122070312
  endloop
 endfacet
 facet normal -0.94060252657835508 0.31768330699224978 -0.11976728874313995
  outer loop
   vertex -23.831871032714844 -175.40646362304688 -344.67327880859375
   vertex -23.985904693603516 -175.86836242675781 -344.68875122070312
   vertex -23.955738067626953 -175.5047607421875 -343.96121215820312
  endloop
 endfacet
 facet normal -0.92376573114723093 0.35650288667066543 -0.13986624236571332
  outer loop
   vertex -23.955738067626953 -175.5047607421875 -343.96121215820312
   vertex -23.985904693603516 -175.86836242675781 -344.68875122070312
   vertex -24.075544357299805 -175.9215087890625 -344.232177734375
  endloop
 endfacet
 facet normal -0.87701560555963776 0.37981643197557591 -0.29425007324757757
  outer loop
   vertex -23.835433959960938 -175.65087890625 -344.9781494140625
   vertex -23.831871032714844 -175.40646362304688 -344.67327880859375
   vertex -23.745149612426758 -175.42082214355469 -344.95028686523438
  endloop
 endfacet
 facet normal 0.73617749886222783 0.22119726580717611 -0.6396205592133386
  outer loop
   vertex -23.077358245849609 -175.49324035644531 -344.53829956054688
   vertex -23.25861930847168 -175.24684143066406 -344.66171264648438
   vertex -23.011152267456055 -175.2255859375 -344.36953735351562
  endloop
 endfacet
 facet normal 0.94675559022653266 -0.032205216408147497 -0.32033837798633197
  outer loop
   vertex -23.077358245849609 -175.49324035644531 -344.53829956054688
   vertex -23.011152267456055 -175.2255859375 -344.36953735351562
   vertex -22.887405395507812 -175.39608764648438 -343.98666381835938
  endloop
 endfacet
 facet normal 0.94540384316293347 -0.11320751939926874 -0.30560698762335209
  outer loop
   vertex -23.077358245849609 -175.49324035644531 -344.53829956054688
   vertex -22.887405395507812 -175.39608764648438 -343.98666381835938
   vertex -23.096340179443359 -175.85557556152344 -344.46279907226562
  endloop
 endfacet
 facet normal 0.95345991435681809 -0.22099185610018057 -0.20512628123204021
  outer loop
   vertex -23.096340179443359 -175.85557556152344 -344.46279907226562
   vertex -22.887405395507812 -175.39608764648438 -343.98666381835938
   vertex -23.003429412841797 -175.90989685058594 -343.972412109375
  endloop
 endfacet
 facet normal -0.85599907397213004 0.51100370088740643 -0.078363276081528016
  outer loop
   vertex -23.831871032714844 -175.40646362304688 -344.67327880859375
   vertex -23.955738067626953 -175.5047607421875 -343.96121215820312
   vertex -23.632797241210938 -174.99906921386719 -344.19125366210938
  endloop
 endfacet
 facet normal -0.79736767415543575 0.60342317563522729 -0.0092338138517297132
  outer loop
   vertex -23.477218627929688 -174.79823303222656 -344.50143432617188
   vertex -23.632797241210938 -174.99906921386719 -344.19125366210938
   vertex -23.413236618041992 -174.70994567871094 -344.2569580078125
  endloop
 endfacet
 facet normal -0.8999261139411936 0.38708085561308708 -0.200752087572066
  outer loop
   vertex -23.572378158569336 -175.13841247558594 -344.73077392578125
   vertex -23.632797241210938 -174.99906921386719 -344.19125366210938
   vertex -23.477218627929688 -174.79823303222656 -344.50143432617188
  endloop
 endfacet
 facet normal -0.72210455866041401 0.64592160622195482 -0.2476898968014207
  outer loop
   vertex -23.572378158569336 -175.13841247558594 -344.73077392578125
   vertex -23.831871032714844 -175.40646362304688 -344.67327880859375
   vertex -23.632797241210938 -174.99906921386719 -344.19125366210938
  endloop
 endfacet
 facet normal -0.72113043642322894 0.64253849884585612 -0.25906595910106972
  outer loop
   vertex -23.572378158569336 -175.13841247558594 -344.73077392578125
   vertex -23.745149612426758 -175.42082214355469 -344.95028686523438
   vertex -23.831871032714844 -175.40646362304688 -344.67327880859375
  endloop
 endfacet
 facet normal 0.096685344052577352 0.53764650909064748 -0.83760860520178226
  outer loop
   vertex -23.572378158569336 -175.13841247558594 -344.73077392578125
   vertex -23.477218627929688 -174.79823303222656 -344.50143432617188
   vertex -23.321664810180664 -174.8392333984375 -344.50979614257812
  endloop
 endfacet
 facet normal 0.32077027680509607 0.3739448576699983 -0.87021357892217843
  outer loop
   vertex -23.25861930847168 -175.24684143066406 -344.66171264648438
   vertex -23.572378158569336 -175.13841247558594 -344.73077392578125
   vertex -23.321664810180664 -174.8392333984375 -344.50979614257812
  endloop
 endfacet
 facet normal 0.79226695726246521 0.31688288726090175 -0.5214386868954678
  outer loop
   vertex -23.25861930847168 -175.24684143066406 -344.66171264648438
   vertex -23.321664810180664 -174.8392333984375 -344.50979614257812
   vertex -23.001035690307617 -174.89483642578125 -344.05642700195312
  endloop
 endfacet
 facet normal 0.63130703433519386 0.52289046235887904 -0.57274513771224633
  outer loop
   vertex -23.25861930847168 -175.24684143066406 -344.66171264648438
   vertex -23.001035690307617 -174.89483642578125 -344.05642700195312
   vertex -23.011152267456055 -175.2255859375 -344.36953735351562
  endloop
 endfacet
 facet normal 0.95621941975668356 0.18523549219626251 -0.22656617953922356
  outer loop
   vertex -22.887405395507812 -175.39608764648438 -343.98666381835938
   vertex -23.011152267456055 -175.2255859375 -344.36953735351562
   vertex -23.001035690307617 -174.89483642578125 -344.05642700195312
  endloop
 endfacet
 facet normal -0.75396790254949408 0.6557238674101894 -0.039479255739452553
  outer loop
   vertex -23.477218627929688 -174.79823303222656 -344.50143432617188
   vertex -23.413236618041992 -174.70994567871094 -344.2569580078125
   vertex -23.375190734863281 -174.677490234375 -344.44448852539062
  endloop
 endfacet
 facet normal 0.053072011605884817 0.38892902463664153 -0.91973777533560908
  outer loop
   vertex -23.321664810180664 -174.8392333984375 -344.50979614257812
   vertex -23.477218627929688 -174.79823303222656 -344.50143432617188
   vertex -23.375190734863281 -174.677490234375 -344.44448852539062
  endloop
 endfacet
 facet normal -0.89307658465169926 -0.44819358210589377 -0.039201108478506295
  outer loop
   vertex -23.87811279296875 -176.58534240722656 -344.379150390625
   vertex -23.992630004882812 -176.39723205566406 -343.92092895507812
   vertex -24.041923522949219 -176.25506591796875 -344.42333984375
  endloop
 endfacet
 facet normal -0.80499049368544162 -0.59181527223702857 0.041773060973321646
  outer loop
   vertex -23.857173919677734 -176.57550048828125 -343.83621215820312
   vertex -23.992630004882812 -176.39723205566406 -343.92092895507812
   vertex -23.87811279296875 -176.58534240722656 -344.379150390625
  endloop
 endfacet
 facet normal -0.40302290928665707 -0.91462597881380203 0.03212247607227018
  outer loop
   vertex -23.857173919677734 -176.57550048828125 -343.83621215820312
   vertex -23.87811279296875 -176.58534240722656 -344.379150390625
   vertex -23.67901611328125 -176.6610107421875 -344.03570556640625
  endloop
 endfacet
 facet normal -0.26591705107275021 -0.96225836523009534 -0.057852921218180114
  outer loop
   vertex -23.67901611328125 -176.6610107421875 -344.03570556640625
   vertex -23.87811279296875 -176.58534240722656 -344.379150390625
   vertex -23.651912689208984 -176.64308166503906 -344.45849609375
  endloop
 endfacet
 facet normal 0.44824466239401023 -0.89386387389654887 -0.0091704731576109522
  outer loop
   vertex -23.67901611328125 -176.6610107421875 -344.03570556640625
   vertex -23.651912689208984 -176.64308166503906 -344.45849609375
   vertex -23.436826705932617 -176.53836059570312 -344.15264892578125
  endloop
 endfacet
 facet normal 0.48416797338496659 -0.87034510767305717 0.089893087041600914
  outer loop
   vertex -23.48924446105957 -176.51521301269531 -343.64620971679688
   vertex -23.67901611328125 -176.6610107421875 -344.03570556640625
   vertex -23.436826705932617 -176.53836059570312 -344.15264892578125
  endloop
 endfacet
 facet normal -0.9369417089661306 -0.28505573401743278 0.20219659369882909
  outer loop
   vertex -23.992630004882812 -176.39723205566406 -343.92092895507812
   vertex -23.874841690063477 -176.25291442871094 -343.17166137695312
   vertex -24.055177688598633 -175.95887756347656 -343.5927734375
  endloop
 endfacet
 facet normal -0.98338325565188212 -0.1753913383433312 0.046853505073151565
  outer loop
   vertex -23.992630004882812 -176.39723205566406 -343.92092895507812
   vertex -24.055177688598633 -175.95887756347656 -343.5927734375
   vertex -24.041923522949219 -176.25506591796875 -344.42333984375
  endloop
 endfacet
 facet normal -0.99312157998262796 -0.11439905075387026 0.0249476363494078
  outer loop
   vertex -24.041923522949219 -176.25506591796875 -344.42333984375
   vertex -24.055177688598633 -175.95887756347656 -343.5927734375
   vertex -24.075544357299805 -175.9215087890625 -344.232177734375
  endloop
 endfacet
 facet normal -0.82441396819624591 -0.51747051245196296 0.2292724967928389
  outer loop
   vertex -23.857173919677734 -176.57550048828125 -343.83621215820312
   vertex -23.874841690063477 -176.25291442871094 -343.17166137695312
   vertex -23.992630004882812 -176.39723205566406 -343.92092895507812
  endloop
 endfacet
 facet normal 0.71814339579627062 -0.68781056931801954 0.1057671206406922
  outer loop
   vertex -23.436826705932617 -176.53836059570312 -344.15264892578125
   vertex -23.193212509155273 -176.19532775878906 -343.57598876953125
   vertex -23.48924446105957 -176.51521301269531 -343.64620971679688
  endloop
 endfacet
 facet normal 0.80519661914658436 -0.59287579496334086 0.012517837732485052
  outer loop
   vertex -23.218334197998047 -176.24488830566406 -344.307373046875
   vertex -23.193212509155273 -176.19532775878906 -343.57598876953125
   vertex -23.436826705932617 -176.53836059570312 -344.15264892578125
  endloop
 endfacet
 facet normal 0.83791405483442849 -0.54574059398666708 0.0082000479270771601
  outer loop
   vertex -23.193212509155273 -176.19532775878906 -343.57598876953125
   vertex -23.218334197998047 -176.24488830566406 -344.307373046875
   vertex -23.003429412841797 -175.90989685058594 -343.972412109375
  endloop
 endfacet
 facet normal 0.85784779251279186 -0.5121930657437167 0.0418978315069264
  outer loop
   vertex -22.900976181030273 -175.68814086914062 -343.35919189453125
   vertex -23.193212509155273 -176.19532775878906 -343.57598876953125
   vertex -23.003429412841797 -175.90989685058594 -343.972412109375
  endloop
 endfacet
 facet normal -0.96752915054305921 0.24865772516369652 0.045350618141782192
  outer loop
   vertex -24.075544357299805 -175.9215087890625 -344.232177734375
   vertex -24.055177688598633 -175.95887756347656 -343.5927734375
   vertex -23.955738067626953 -175.5047607421875 -343.96121215820312
  endloop
 endfacet
 facet normal -0.98315984589532823 0.17632572469662991 -0.048020373064802196
  outer loop
   vertex -24.055177688598633 -175.95887756347656 -343.5927734375
   vertex -23.994161605834961 -175.40144348144531 -342.795166015625
   vertex -23.955738067626953 -175.5047607421875 -343.96121215820312
  endloop
 endfacet
 facet normal 0.97164928603550937 -0.22168872046760718 -0.08216919230538812
  outer loop
   vertex -23.003429412841797 -175.90989685058594 -343.972412109375
   vertex -22.887405395507812 -175.39608764648438 -343.98666381835938
   vertex -22.900976181030273 -175.68814086914062 -343.35919189453125
  endloop
 endfacet
 facet normal 0.94498411090343859 -0.30390865834901576 -0.12101469960520927
  outer loop
   vertex -22.900976181030273 -175.68814086914062 -343.35919189453125
   vertex -22.887405395507812 -175.39608764648438 -343.98666381835938
   vertex -22.758857727050781 -175.27017211914062 -343.299072265625
  endloop
 endfacet
 facet normal -0.81828292864917707 0.56957655292618914 -0.07743125362568945
  outer loop
   vertex -23.955738067626953 -175.5047607421875 -343.96121215820312
   vertex -23.994161605834961 -175.40144348144531 -342.795166015625
   vertex -23.712259292602539 -175.04624938964844 -343.1614990234375
  endloop
 endfacet
 facet normal -0.85055179826194716 0.52424218603220307 -0.041614527001338067
  outer loop
   vertex -23.632797241210938 -174.99906921386719 -344.19125366210938
   vertex -23.955738067626953 -175.5047607421875 -343.96121215820312
   vertex -23.712259292602539 -175.04624938964844 -343.1614990234375
  endloop
 endfacet
 facet normal -0.091481773520972712 0.98842723229729357 0.12100698974261505
  outer loop
   vertex -23.413236618041992 -174.70994567871094 -344.2569580078125
   vertex -23.268819808959961 -174.77618408203125 -343.60671997070312
   vertex -23.268844604492188 -174.69961547851562 -344.232177734375
  endloop
 endfacet
 facet normal -0.7492527160490331 0.62118004431744245 0.22968613374543792
  outer loop
   vertex -23.413236618041992 -174.70994567871094 -344.2569580078125
   vertex -23.632797241210938 -174.99906921386719 -344.19125366210938
   vertex -23.268819808959961 -174.77618408203125 -343.60671997070312
  endloop
 endfacet
 facet normal -0.52095001359768678 0.85358648840740348 -0.0010909357852882369
  outer loop
   vertex -23.632797241210938 -174.99906921386719 -344.19125366210938
   vertex -23.712259292602539 -175.04624938964844 -343.1614990234375
   vertex -23.268819808959961 -174.77618408203125 -343.60671997070312
  endloop
 endfacet
 facet normal 0.69843277151333483 0.5771758788225233 -0.4231544263996887
  outer loop
   vertex -23.268844604492188 -174.69961547851562 -344.232177734375
   vertex -23.001035690307617 -174.89483642578125 -344.05642700195312
   vertex -23.321664810180664 -174.8392333984375 -344.50979614257812
  endloop
 endfacet
 facet normal 0.54133613659337065 0.83457835648579082 0.10214770728528261
  outer loop
   vertex -23.268844604492188 -174.69961547851562 -344.232177734375
   vertex -23.268819808959961 -174.77618408203125 -343.60671997070312
   vertex -23.001035690307617 -174.89483642578125 -344.05642700195312
  endloop
 endfacet
 facet normal -0.15274741535511735 0.95172192873634165 -0.26625851622945107
  outer loop
   vertex -22.760997772216797 -174.75129699707031 -343.68106079101562
   vertex -23.001035690307617 -174.89483642578125 -344.05642700195312
   vertex -22.852970123291016 -174.72297668457031 -343.52706909179688
  endloop
 endfacet
 facet normal -0.066314251486282241 0.95433566648316837 -0.29128311953826097
  outer loop
   vertex -22.852970123291016 -174.72297668457031 -343.52706909179688
   vertex -23.001035690307617 -174.89483642578125 -344.05642700195312
   vertex -23.268819808959961 -174.77618408203125 -343.60671997070312
  endloop
 endfacet
 facet normal 0.85782494229260897 -0.22046733632349583 -0.46425264888323958
  outer loop
   vertex -23.001035690307617 -174.89483642578125 -344.05642700195312
   vertex -22.760997772216797 -174.75129699707031 -343.68106079101562
   vertex -22.735145568847656 -174.92723083496094 -343.54974365234375
  endloop
 endfacet
 facet normal 0.88075451970104379 0.13654949800796867 -0.45345971223467624
  outer loop
   vertex -23.001035690307617 -174.89483642578125 -344.05642700195312
   vertex -22.735145568847656 -174.92723083496094 -343.54974365234375
   vertex -22.887405395507812 -175.39608764648438 -343.98666381835938
  endloop
 endfacet
 facet normal 0.97286051033877596 -0.17657564019112984 -0.14954420989951211
  outer loop
   vertex -22.887405395507812 -175.39608764648438 -343.98666381835938
   vertex -22.735145568847656 -174.92723083496094 -343.54974365234375
   vertex -22.758857727050781 -175.27017211914062 -343.299072265625
  endloop
 endfacet
 facet normal -0.096260096667382417 0.98387455441364413 0.1507476532717483
  outer loop
   vertex -23.413236618041992 -174.70994567871094 -344.2569580078125
   vertex -23.268844604492188 -174.69961547851562 -344.232177734375
   vertex -23.375190734863281 -174.677490234375 -344.44448852539062
  endloop
 endfacet
 facet normal 0.043376497407381906 0.98686947115703538 -0.15558639519861903
  outer loop
   vertex -22.760997772216797 -174.75129699707031 -343.68106079101562
   vertex -22.852970123291016 -174.72297668457031 -343.52706909179688
   vertex -22.704055786132812 -174.72853088378906 -343.52078247070312
  endloop
 endfacet
 facet normal 0.82700736736553515 0.42313989604944774 -0.37015056759971238
  outer loop
   vertex -23.321664810180664 -174.8392333984375 -344.50979614257812
   vertex -23.375190734863281 -174.677490234375 -344.44448852539062
   vertex -23.268844604492188 -174.69961547851562 -344.232177734375
  endloop
 endfacet
 facet normal 0.94193647505006817 -0.10069053058933412 -0.32033902981043461
  outer loop
   vertex -22.735145568847656 -174.92723083496094 -343.54974365234375
   vertex -22.760997772216797 -174.75129699707031 -343.68106079101562
   vertex -22.704055786132812 -174.72853088378906 -343.52078247070312
  endloop
 endfacet
 facet normal -0.19551551044545543 -0.95245968015846427 0.23365410941750864
  outer loop
   vertex -23.67901611328125 -176.6610107421875 -344.03570556640625
   vertex -23.692609786987305 -176.53244018554688 -343.52297973632812
   vertex -23.857173919677734 -176.57550048828125 -343.83621215820312
  endloop
 endfacet
 facet normal 0.22687099257639717 -0.94324091862640125 0.24254097005706668
  outer loop
   vertex -23.67901611328125 -176.6610107421875 -344.03570556640625
   vertex -23.48924446105957 -176.51521301269531 -343.64620971679688
   vertex -23.692609786987305 -176.53244018554688 -343.52297973632812
  endloop
 endfacet
 facet normal -0.76612130765106756 -0.58573720844536836 0.26451855247911293
  outer loop
   vertex -23.874841690063477 -176.25291442871094 -343.17166137695312
   vertex -23.756507873535156 -175.88851928710938 -342.02203369140625
   vertex -24.006393432617188 -175.73539733886719 -342.40670776367188
  endloop
 endfacet
 facet normal -0.91065911783770204 -0.39758394872210667 0.11236981275055753
  outer loop
   vertex -24.055177688598633 -175.95887756347656 -343.5927734375
   vertex -23.874841690063477 -176.25291442871094 -343.17166137695312
   vertex -24.006393432617188 -175.73539733886719 -342.40670776367188
  endloop
 endfacet
 facet normal -0.4957340555966786 -0.78639502117170124 0.36855205439398725
  outer loop
   vertex -23.692609786987305 -176.53244018554688 -343.52297973632812
   vertex -23.874841690063477 -176.25291442871094 -343.17166137695312
   vertex -23.857173919677734 -176.57550048828125 -343.83621215820312
  endloop
 endfacet
 facet normal -0.29188690527894162 -0.8164523350658488 0.49820439489451029
  outer loop
   vertex -23.692609786987305 -176.53244018554688 -343.52297973632812
   vertex -23.483675003051758 -176.20259094238281 -342.86001586914062
   vertex -23.874841690063477 -176.25291442871094 -343.17166137695312
  endloop
 endfacet
 facet normal -0.12707877571789825 -0.94168880534612442 0.31156568913766641
  outer loop
   vertex -23.483675003051758 -176.20259094238281 -342.86001586914062
   vertex -23.756507873535156 -175.88851928710938 -342.02203369140625
   vertex -23.874841690063477 -176.25291442871094 -343.17166137695312
  endloop
 endfacet
 facet normal 0.28871687407806962 -0.89035974165664 0.3519972969494361
  outer loop
   vertex -23.48924446105957 -176.51521301269531 -343.64620971679688
   vertex -23.483675003051758 -176.20259094238281 -342.86001586914062
   vertex -23.692609786987305 -176.53244018554688 -343.52297973632812
  endloop
 endfacet
 facet normal 0.67713400103468735 -0.68541812753674292 0.26775274991450831
  outer loop
   vertex -23.48924446105957 -176.51521301269531 -343.64620971679688
   vertex -23.193212509155273 -176.19532775878906 -343.57598876953125
   vertex -23.483675003051758 -176.20259094238281 -342.86001586914062
  endloop
 endfacet
 facet normal 0.59487312464930342 -0.76914838549689946 0.23353099720912265
  outer loop
   vertex -23.193212509155273 -176.19532775878906 -343.57598876953125
   vertex -23.084325790405273 -175.82479858398438 -342.63299560546875
   vertex -23.483675003051758 -176.20259094238281 -342.86001586914062
  endloop
 endfacet
 facet normal 0.83956769739683024 -0.53159800023609893 0.1119359085940034
  outer loop
   vertex -23.084325790405273 -175.82479858398438 -342.63299560546875
   vertex -23.193212509155273 -176.19532775878906 -343.57598876953125
   vertex -22.900976181030273 -175.68814086914062 -343.35919189453125
  endloop
 endfacet
 facet normal 0.87768743672827454 -0.4598050759465383 0.1350705576472884
  outer loop
   vertex -22.857931137084961 -175.40138244628906 -342.6627197265625
   vertex -23.084325790405273 -175.82479858398438 -342.63299560546875
   vertex -22.900976181030273 -175.68814086914062 -343.35919189453125
  endloop
 endfacet
 facet normal -0.99721725899838454 0.069093017391106334 0.027998094641259061
  outer loop
   vertex -24.055177688598633 -175.95887756347656 -343.5927734375
   vertex -24.006393432617188 -175.73539733886719 -342.40670776367188
   vertex -23.994161605834961 -175.40144348144531 -342.795166015625
  endloop
 endfacet
 facet normal -0.99940282817340964 -0.0033939025678471936 -0.034387039191390259
  outer loop
   vertex -24.006393432617188 -175.73539733886719 -342.40670776367188
   vertex -24.036584854125977 -175.22343444824219 -341.57977294921875
   vertex -23.994161605834961 -175.40144348144531 -342.795166015625
  endloop
 endfacet
 facet normal 0.94038981281559875 -0.33099537893486325 0.078160470037027432
  outer loop
   vertex -22.900976181030273 -175.68814086914062 -343.35919189453125
   vertex -22.758857727050781 -175.27017211914062 -343.299072265625
   vertex -22.857931137084961 -175.40138244628906 -342.6627197265625
  endloop
 endfacet
 facet normal 0.98419594255236253 -0.12237316443834557 0.12799670030439136
  outer loop
   vertex -22.857931137084961 -175.40138244628906 -342.6627197265625
   vertex -22.758857727050781 -175.27017211914062 -343.299072265625
   vertex -22.774555206298828 -175.01341247558594 -342.93289184570312
  endloop
 endfacet
 facet normal -0.83271059675270132 0.54295639736450207 -0.10858827108265931
  outer loop
   vertex -23.994161605834961 -175.40144348144531 -342.795166015625
   vertex -24.036584854125977 -175.22343444824219 -341.57977294921875
   vertex -23.830459594726562 -174.99542236328125 -342.02035522460938
  endloop
 endfacet
 facet normal -0.83078439396168513 0.54554536327714753 -0.11035192502408374
  outer loop
   vertex -23.712259292602539 -175.04624938964844 -343.1614990234375
   vertex -23.994161605834961 -175.40144348144531 -342.795166015625
   vertex -23.830459594726562 -174.99542236328125 -342.02035522460938
  endloop
 endfacet
 facet normal -0.51220512105896432 0.85879551333797488 0.010778693405784856
  outer loop
   vertex -23.268819808959961 -174.77618408203125 -343.60671997070312
   vertex -23.712259292602539 -175.04624938964844 -343.1614990234375
   vertex -23.385002136230469 -174.86235046386719 -342.26239013671875
  endloop
 endfacet
 facet normal -0.3228361150775379 0.94344183945399862 -0.075460839972120886
  outer loop
   vertex -23.712259292602539 -175.04624938964844 -343.1614990234375
   vertex -23.830459594726562 -174.99542236328125 -342.02035522460938
   vertex -23.385002136230469 -174.86235046386719 -342.26239013671875
  endloop
 endfacet
 facet normal 0.13358394528067224 0.97478188785086428 0.17876129525474838
  outer loop
   vertex -22.852970123291016 -174.72297668457031 -343.52706909179688
   vertex -22.958646774291992 -174.81947326660156 -342.92190551757812
   vertex -22.73906135559082 -174.78187561035156 -343.291015625
  endloop
 endfacet
 facet normal -0.1503016127236485 0.98005209190103726 0.13002815992342262
  outer loop
   vertex -22.852970123291016 -174.72297668457031 -343.52706909179688
   vertex -23.268819808959961 -174.77618408203125 -343.60671997070312
   vertex -22.958646774291992 -174.81947326660156 -342.92190551757812
  endloop
 endfacet
 facet normal -0.0016340789019252549 0.9979598213869586 0.063824170056900331
  outer loop
   vertex -23.268819808959961 -174.77618408203125 -343.60671997070312
   vertex -23.385002136230469 -174.86235046386719 -342.26239013671875
   vertex -22.958646774291992 -174.81947326660156 -342.92190551757812
  endloop
 endfacet
 facet normal 0.65917695368032925 0.60002916576983834 0.45326674702902359
  outer loop
   vertex -22.73906135559082 -174.78187561035156 -343.291015625
   vertex -22.958646774291992 -174.81947326660156 -342.92190551757812
   vertex -22.774555206298828 -175.01341247558594 -342.93289184570312
  endloop
 endfacet
 facet normal 0.99613987108325519 -0.069228883116495735 0.053969611640981283
  outer loop
   vertex -22.73906135559082 -174.78187561035156 -343.291015625
   vertex -22.774555206298828 -175.01341247558594 -342.93289184570312
   vertex -22.735145568847656 -174.92723083496094 -343.54974365234375
  endloop
 endfacet
 facet normal 0.99787055410178216 -0.024944148474169064 0.060267293895618433
  outer loop
   vertex -22.735145568847656 -174.92723083496094 -343.54974365234375
   vertex -22.774555206298828 -175.01341247558594 -342.93289184570312
   vertex -22.758857727050781 -175.27017211914062 -343.299072265625
  endloop
 endfacet
 facet normal 0.026579077080962389 0.9728478297611628 0.22991444667641042
  outer loop
   vertex -22.852970123291016 -174.72297668457031 -343.52706909179688
   vertex -22.73906135559082 -174.78187561035156 -343.291015625
   vertex -22.704055786132812 -174.72853088378906 -343.52078247070312
  endloop
 endfacet
 facet normal 0.97942150254493665 -0.16926717823467405 0.10991880059884993
  outer loop
   vertex -22.735145568847656 -174.92723083496094 -343.54974365234375
   vertex -22.704055786132812 -174.72853088378906 -343.52078247070312
   vertex -22.73906135559082 -174.78187561035156 -343.291015625
  endloop
 endfacet
 facet normal -0.58600986110561171 -0.77256482817778038 0.24440955167427147
  outer loop
   vertex -23.756507873535156 -175.88851928710938 -342.02203369140625
   vertex -23.709402084350586 -175.60493469238281 -341.0126953125
   vertex -23.965915679931641 -175.52143859863281 -341.36380004882812
  endloop
 endfacet
 facet normal -0.69236567191414933 -0.70106441434282085 0.17069992178388971
  outer loop
   vertex -24.006393432617188 -175.73539733886719 -342.40670776367188
   vertex -23.756507873535156 -175.88851928710938 -342.02203369140625
   vertex -23.965915679931641 -175.52143859863281 -341.36380004882812
  endloop
 endfacet
 facet normal -0.0021186160716976888 -0.93661661547416486 0.35034957839800712
  outer loop
   vertex -23.483675003051758 -176.20259094238281 -342.86001586914062
   vertex -23.32750129699707 -175.70968627929688 -341.54135131835938
   vertex -23.756507873535156 -175.88851928710938 -342.02203369140625
  endloop
 endfacet
 facet normal 0.10324667814819741 -0.95882279858073105 0.26457317394848873
  outer loop
   vertex -23.756507873535156 -175.88851928710938 -342.02203369140625
   vertex -23.32750129699707 -175.70968627929688 -341.54135131835938
   vertex -23.709402084350586 -175.60493469238281 -341.0126953125
  endloop
 endfacet
 facet normal 0.70384932803770928 -0.68737036495074944 0.17921524714247544
  outer loop
   vertex -23.017108917236328 -175.49702453613281 -341.94473266601562
   vertex -23.072872161865234 -175.35379028320312 -341.17636108398438
   vertex -23.32750129699707 -175.70968627929688 -341.54135131835938
  endloop
 endfacet
 facet normal 0.73614657768026759 -0.63615761040236363 0.23106646424088556
  outer loop
   vertex -23.017108917236328 -175.49702453613281 -341.94473266601562
   vertex -23.32750129699707 -175.70968627929688 -341.54135131835938
   vertex -23.084325790405273 -175.82479858398438 -342.63299560546875
  endloop
 endfacet
 facet normal 0.60367995117696649 -0.76757192411777209 0.21541554691599329
  outer loop
   vertex -23.084325790405273 -175.82479858398438 -342.63299560546875
   vertex -23.32750129699707 -175.70968627929688 -341.54135131835938
   vertex -23.483675003051758 -176.20259094238281 -342.86001586914062
  endloop
 endfacet
 facet normal 0.87784433159511122 -0.46001039691594742 0.13334078226696119
  outer loop
   vertex -23.084325790405273 -175.82479858398438 -342.63299560546875
   vertex -22.857931137084961 -175.40138244628906 -342.6627197265625
   vertex -23.017108917236328 -175.49702453613281 -341.94473266601562
  endloop
 endfacet
 facet normal -0.98109651044090163 -0.17851918878390111 0.074702988137179779
  outer loop
   vertex -24.006393432617188 -175.73539733886719 -342.40670776367188
   vertex -23.965915679931641 -175.52143859863281 -341.36380004882812
   vertex -24.036584854125977 -175.22343444824219 -341.57977294921875
  endloop
 endfacet
 facet normal -0.97079232635334189 -0.23957361253463358 -0.01291291100301575
  outer loop
   vertex -23.965915679931641 -175.52143859863281 -341.36380004882812
   vertex -24.050519943237305 -175.20599365234375 -340.855712890625
   vertex -24.036584854125977 -175.22343444824219 -341.57977294921875
  endloop
 endfacet
 facet normal 0.99640399672621316 -0.032296355086108765 0.078332756597609993
  outer loop
   vertex -23.003782272338867 -175.09268188476562 -341.94754028320312
   vertex -23.072872161865234 -175.35379028320312 -341.17636108398438
   vertex -23.017108917236328 -175.49702453613281 -341.94473266601562
  endloop
 endfacet
 facet normal 0.99626492387634857 -0.043763078662230358 0.07443785595822193
  outer loop
   vertex -23.0780029296875 -175.08699035644531 -340.95083618164062
   vertex -23.072872161865234 -175.35379028320312 -341.17636108398438
   vertex -23.003782272338867 -175.09268188476562 -341.94754028320312
  endloop
 endfacet
 facet normal 0.97350065173686784 -0.054556763544127328 0.22208115773177067
  outer loop
   vertex -22.857931137084961 -175.40138244628906 -342.6627197265625
   vertex -22.774555206298828 -175.01341247558594 -342.93289184570312
   vertex -23.003782272338867 -175.09268188476562 -341.94754028320312
  endloop
 endfacet
 facet normal 0.97669105705537984 -0.0307154392334665 0.21244091145713909
  outer loop
   vertex -23.017108917236328 -175.49702453613281 -341.94473266601562
   vertex -22.857931137084961 -175.40138244628906 -342.6627197265625
   vertex -23.003782272338867 -175.09268188476562 -341.94754028320312
  endloop
 endfacet
 facet normal -0.86981655327635499 0.46439369036354744 -0.16660631439704618
  outer loop
   vertex -23.933401107788086 -174.88932800292969 -341.18719482421875
   vertex -23.830459594726562 -174.99542236328125 -342.02035522460938
   vertex -24.036584854125977 -175.22343444824219 -341.57977294921875
  endloop
 endfacet
 facet normal -0.88610071454606876 0.44105509667470294 -0.14246376865089172
  outer loop
   vertex -23.933401107788086 -174.88932800292969 -341.18719482421875
   vertex -24.036584854125977 -175.22343444824219 -341.57977294921875
   vertex -24.031429290771484 -174.9197998046875 -340.67181396484375
  endloop
 endfacet
 facet normal -0.99656818321604679 0.080039506273988689 -0.021107667727244876
  outer loop
   vertex -24.031429290771484 -174.9197998046875 -340.67181396484375
   vertex -24.036584854125977 -175.22343444824219 -341.57977294921875
   vertex -24.050519943237305 -175.20599365234375 -340.855712890625
  endloop
 endfacet
 facet normal -0.36107465443248049 0.9188167288339506 -0.15937663800363994
  outer loop
   vertex -23.830459594726562 -174.99542236328125 -342.02035522460938
   vertex -23.662940979003906 -174.79435729980469 -341.24072265625
   vertex -23.385002136230469 -174.86235046386719 -342.26239013671875
  endloop
 endfacet
 facet normal -0.3552223165607441 0.92078782188250252 -0.1611424614746077
  outer loop
   vertex -23.933401107788086 -174.88932800292969 -341.18719482421875
   vertex -23.662940979003906 -174.79435729980469 -341.24072265625
   vertex -23.830459594726562 -174.99542236328125 -342.02035522460938
  endloop
 endfacet
 facet normal 0.70795328738448604 0.70457854622471783 0.04869512379450771
  outer loop
   vertex -23.003782272338867 -175.09268188476562 -341.94754028320312
   vertex -23.29002571105957 -174.866943359375 -341.05224609375
   vertex -23.0780029296875 -175.08699035644531 -340.95083618164062
  endloop
 endfacet
 facet normal 0.54026146078446668 0.84058314482981134 -0.039211358291427613
  outer loop
   vertex -23.003782272338867 -175.09268188476562 -341.94754028320312
   vertex -23.385002136230469 -174.86235046386719 -342.26239013671875
   vertex -23.29002571105957 -174.866943359375 -341.05224609375
  endloop
 endfacet
 facet normal 0.32531731462326885 0.90646502568305898 0.26923930251676897
  outer loop
   vertex -23.003782272338867 -175.09268188476562 -341.94754028320312
   vertex -22.958646774291992 -174.81947326660156 -342.92190551757812
   vertex -23.385002136230469 -174.86235046386719 -342.26239013671875
  endloop
 endfacet
 facet normal 0.1967505227382034 0.98038352420620778 -0.011720804889576541
  outer loop
   vertex -23.662940979003906 -174.79435729980469 -341.24072265625
   vertex -23.29002571105957 -174.866943359375 -341.05224609375
   vertex -23.385002136230469 -174.86235046386719 -342.26239013671875
  endloop
 endfacet
 facet normal 0.71376455098269453 0.66508456785379155 0.21955109510819576
  outer loop
   vertex -22.774555206298828 -175.01341247558594 -342.93289184570312
   vertex -22.958646774291992 -174.81947326660156 -342.92190551757812
   vertex -23.003782272338867 -175.09268188476562 -341.94754028320312
  endloop
 endfacet
 facet normal -0.6959119453183692 0.71243431716965178 -0.090243604106966593
  outer loop
   vertex -23.933401107788086 -174.88932800292969 -341.18719482421875
   vertex -24.031429290771484 -174.9197998046875 -340.67181396484375
   vertex -23.854572296142578 -174.7420654296875 -340.63250732421875
  endloop
 endfacet
 facet normal -0.35871244970463245 0.91357970435460423 -0.19156592133846667
  outer loop
   vertex -23.662940979003906 -174.79435729980469 -341.24072265625
   vertex -23.933401107788086 -174.88932800292969 -341.18719482421875
   vertex -23.854572296142578 -174.7420654296875 -340.63250732421875
  endloop
 endfacet
 facet normal -0.013947978699201755 0.9958429056765522 -0.090013116288061829
  outer loop
   vertex -23.569412231445312 -174.72981262207031 -340.5411376953125
   vertex -23.662940979003906 -174.79435729980469 -341.24072265625
   vertex -23.854572296142578 -174.7420654296875 -340.63250732421875
  endloop
 endfacet
 facet normal 0.2486406429286368 0.96089515908035505 -0.12189472482422312
  outer loop
   vertex -23.29002571105957 -174.866943359375 -341.05224609375
   vertex -23.662940979003906 -174.79435729980469 -341.24072265625
   vertex -23.569412231445312 -174.72981262207031 -340.5411376953125
  endloop
 endfacet
 facet normal -0.5327857075459792 -0.80859028672698119 0.24964201979135753
  outer loop
   vertex -23.709402084350586 -175.60493469238281 -341.0126953125
   vertex -23.701814651489258 -175.42152404785156 -340.40243530273438
   vertex -23.914640426635742 -175.34700012207031 -340.61526489257812
  endloop
 endfacet
 facet normal -0.56484997417115435 -0.79426886193100343 0.22378892207988063
  outer loop
   vertex -23.965915679931641 -175.52143859863281 -341.36380004882812
   vertex -23.709402084350586 -175.60493469238281 -341.0126953125
   vertex -23.914640426635742 -175.34700012207031 -340.61526489257812
  endloop
 endfacet
 facet normal -0.00025153565705430544 -0.98096327175773201 0.19419319296046184
  outer loop
   vertex -23.32750129699707 -175.70968627929688 -341.54135131835938
   vertex -23.45782470703125 -175.51434326171875 -340.55474853515625
   vertex -23.709402084350586 -175.60493469238281 -341.0126953125
  endloop
 endfacet
 facet normal -0.1801080706770419 -0.9414018497941431 0.28517300026678399
  outer loop
   vertex -23.709402084350586 -175.60493469238281 -341.0126953125
   vertex -23.45782470703125 -175.51434326171875 -340.55474853515625
   vertex -23.701814651489258 -175.42152404785156 -340.40243530273438
  endloop
 endfacet
 facet normal 0.87633872520916223 -0.46127516753241132 0.13876475963560239
  outer loop
   vertex -23.072872161865234 -175.35379028320312 -341.17636108398438
   vertex -23.104803085327148 -175.20722961425781 -340.48751831054688
   vertex -23.207683563232422 -175.43656921386719 -340.60015869140625
  endloop
 endfacet
 facet normal 0.76550554171909446 -0.63744867228825985 0.087524029816333601
  outer loop
   vertex -23.072872161865234 -175.35379028320312 -341.17636108398438
   vertex -23.207683563232422 -175.43656921386719 -340.60015869140625
   vertex -23.32750129699707 -175.70968627929688 -341.54135131835938
  endloop
 endfacet
 facet normal 0.32629064909399025 -0.91812885797625188 0.22488622115426724
  outer loop
   vertex -23.32750129699707 -175.70968627929688 -341.54135131835938
   vertex -23.207683563232422 -175.43656921386719 -340.60015869140625
   vertex -23.45782470703125 -175.51434326171875 -340.55474853515625
  endloop
 endfacet
 facet normal 0.87022541683639865 -0.46717919921249385 0.15636917763769559
  outer loop
   vertex -23.207683563232422 -175.43656921386719 -340.60015869140625
   vertex -23.104803085327148 -175.20722961425781 -340.48751831054688
   vertex -23.196897506713867 -175.27435302734375 -340.175537109375
  endloop
 endfacet
 facet normal -0.84178366467755306 -0.51013005363789987 0.17654345147136546
  outer loop
   vertex -23.965915679931641 -175.52143859863281 -341.36380004882812
   vertex -23.914640426635742 -175.34700012207031 -340.61526489257812
   vertex -24.050519943237305 -175.20599365234375 -340.855712890625
  endloop
 endfacet
 facet normal -0.86647636971688269 -0.44321386444305116 0.22973935467766241
  outer loop
   vertex -23.914640426635742 -175.34700012207031 -340.61526489257812
   vertex -23.993432998657227 -175.055908203125 -340.35086059570312
   vertex -24.050519943237305 -175.20599365234375 -340.855712890625
  endloop
 endfacet
 facet normal 0.95971302449299745 0.25345548253013683 0.12128985528031111
  outer loop
   vertex -23.104803085327148 -175.20722961425781 -340.48751831054688
   vertex -23.0780029296875 -175.08699035644531 -340.95083618164062
   vertex -23.174354553222656 -174.96891784667969 -340.4351806640625
  endloop
 endfacet
 facet normal 0.99838032711466507 -0.024288356004558909 0.051447042607037793
  outer loop
   vertex -23.072872161865234 -175.35379028320312 -341.17636108398438
   vertex -23.0780029296875 -175.08699035644531 -340.95083618164062
   vertex -23.104803085327148 -175.20722961425781 -340.48751831054688
  endloop
 endfacet
 facet normal 0.96015187084635989 -0.022625497700244159 0.27856143265723521
  outer loop
   vertex -23.214334487915039 -175.07537841796875 -340.09927368164062
   vertex -23.196897506713867 -175.27435302734375 -340.175537109375
   vertex -23.104803085327148 -175.20722961425781 -340.48751831054688
  endloop
 endfacet
 facet normal 0.95310772150448697 0.23677136437176238 0.18848074761645908
  outer loop
   vertex -23.174354553222656 -174.96891784667969 -340.4351806640625
   vertex -23.214334487915039 -175.07537841796875 -340.09927368164062
   vertex -23.104803085327148 -175.20722961425781 -340.48751831054688
  endloop
 endfacet
 facet normal -0.99339595976068318 -0.0073113430644962413 0.11450332481524031
  outer loop
   vertex -24.050519943237305 -175.20599365234375 -340.855712890625
   vertex -23.993432998657227 -175.055908203125 -340.35086059570312
   vertex -24.031429290771484 -174.9197998046875 -340.67181396484375
  endloop
 endfacet
 facet normal -0.99388066108749695 -0.062192815877465168 0.091286829113031945
  outer loop
   vertex -23.993432998657227 -175.055908203125 -340.35086059570312
   vertex -23.994125366210938 -174.84233093261719 -340.212890625
   vertex -24.031429290771484 -174.9197998046875 -340.67181396484375
  endloop
 endfacet
 facet normal 0.7018365732771854 0.7122030481990792 -0.013865155840378769
  outer loop
   vertex -23.174354553222656 -174.96891784667969 -340.4351806640625
   vertex -23.29002571105957 -174.866943359375 -341.05224609375
   vertex -23.338212966918945 -174.80635070800781 -340.37899780273438
  endloop
 endfacet
 facet normal 0.72501877062635001 0.68837287182119933 -0.022148850536555388
  outer loop
   vertex -23.0780029296875 -175.08699035644531 -340.95083618164062
   vertex -23.29002571105957 -174.866943359375 -341.05224609375
   vertex -23.174354553222656 -174.96891784667969 -340.4351806640625
  endloop
 endfacet
 facet normal 0.88739908078688468 0.39843104576909411 0.23189560838001752
  outer loop
   vertex -23.294610977172852 -174.88883972167969 -340.11257934570312
   vertex -23.214334487915039 -175.07537841796875 -340.09927368164062
   vertex -23.174354553222656 -174.96891784667969 -340.4351806640625
  endloop
 endfacet
 facet normal 0.71746568970675628 0.68992004809643903 0.096194133543659424
  outer loop
   vertex -23.338212966918945 -174.80635070800781 -340.37899780273438
   vertex -23.294610977172852 -174.88883972167969 -340.11257934570312
   vertex -23.174354553222656 -174.96891784667969 -340.4351806640625
  endloop
 endfacet
 facet normal -0.91308730919701364 0.40772842611036236 0.005394100937527911
  outer loop
   vertex -24.031429290771484 -174.9197998046875 -340.67181396484375
   vertex -23.994125366210938 -174.84233093261719 -340.212890625
   vertex -23.950193405151367 -174.74290466308594 -340.29171752929688
  endloop
 endfacet
 facet normal -0.67518967528758578 0.7133655510072443 -0.18769254918929296
  outer loop
   vertex -23.854572296142578 -174.7420654296875 -340.63250732421875
   vertex -24.031429290771484 -174.9197998046875 -340.67181396484375
   vertex -23.950193405151367 -174.74290466308594 -340.29171752929688
  endloop
 endfacet
 facet normal -0.020949216258427179 0.99743959933111304 -0.068376721362947909
  outer loop
   vertex -23.569412231445312 -174.72981262207031 -340.5411376953125
   vertex -23.854572296142578 -174.7420654296875 -340.63250732421875
   vertex -23.761529922485352 -174.71052551269531 -340.200927734375
  endloop
 endfacet
 facet normal -0.15039751576454108 0.98782548012528915 -0.039766921770443109
  outer loop
   vertex -23.854572296142578 -174.7420654296875 -340.63250732421875
   vertex -23.950193405151367 -174.74290466308594 -340.29171752929688
   vertex -23.761529922485352 -174.71052551269531 -340.200927734375
  endloop
 endfacet
 facet normal 0.35077865597791058 0.93459748178512025 -0.059007470300314377
  outer loop
   vertex -23.338212966918945 -174.80635070800781 -340.37899780273438
   vertex -23.29002571105957 -174.866943359375 -341.05224609375
   vertex -23.569412231445312 -174.72981262207031 -340.5411376953125
  endloop
 endfacet
 facet normal 0.27419360328944825 0.95967168154973015 0.062033309976673973
  outer loop
   vertex -23.338212966918945 -174.80635070800781 -340.37899780273438
   vertex -23.569412231445312 -174.72981262207031 -340.5411376953125
   vertex -23.500455856323242 -174.77702331542969 -340.11557006835938
  endloop
 endfacet
 facet normal 0.22418124003794634 0.97192134611829306 0.071495933972876111
  outer loop
   vertex -23.500455856323242 -174.77702331542969 -340.11557006835938
   vertex -23.569412231445312 -174.72981262207031 -340.5411376953125
   vertex -23.761529922485352 -174.71052551269531 -340.200927734375
  endloop
 endfacet
 facet normal 0.46638823125850326 0.86369369415172192 0.19108956126936055
  outer loop
   vertex -23.294610977172852 -174.88883972167969 -340.11257934570312
   vertex -23.338212966918945 -174.80635070800781 -340.37899780273438
   vertex -23.500455856323242 -174.77702331542969 -340.11557006835938
  endloop
 endfacet
 facet normal -0.62559937284239697 -0.67638938739238841 0.38874518816591036
  outer loop
   vertex -23.701814651489258 -175.42152404785156 -340.40243530273438
   vertex -23.797496795654297 -175.19148254394531 -340.15615844726562
   vertex -23.914640426635742 -175.34700012207031 -340.61526489257812
  endloop
 endfacet
 facet normal -0.099239929537152952 -0.91241540199434656 0.39705109317184351
  outer loop
   vertex -23.701814651489258 -175.42152404785156 -340.40243530273438
   vertex -23.45782470703125 -175.51434326171875 -340.55474853515625
   vertex -23.537675857543945 -175.311767578125 -340.10919189453125
  endloop
 endfacet
 facet normal -0.43460020641344604 -0.73618329735675403 0.51880325102906499
  outer loop
   vertex -23.797496795654297 -175.19148254394531 -340.15615844726562
   vertex -23.701814651489258 -175.42152404785156 -340.40243530273438
   vertex -23.537675857543945 -175.311767578125 -340.10919189453125
  endloop
 endfacet
 facet normal 0.32687494681607171 -0.9163734821074202 0.23111125120666903
  outer loop
   vertex -23.45782470703125 -175.51434326171875 -340.55474853515625
   vertex -23.207683563232422 -175.43656921386719 -340.60015869140625
   vertex -23.322565078735352 -175.3734130859375 -340.187255859375
  endloop
 endfacet
 facet normal -0.11856032158263745 -0.91174151250733559 0.39328216908100166
  outer loop
   vertex -23.537675857543945 -175.311767578125 -340.10919189453125
   vertex -23.45782470703125 -175.51434326171875 -340.55474853515625
   vertex -23.322565078735352 -175.3734130859375 -340.187255859375
  endloop
 endfacet
 facet normal 0.57848124817329849 -0.76677607622501243 0.27823352501241938
  outer loop
   vertex -23.207683563232422 -175.43656921386719 -340.60015869140625
   vertex -23.196897506713867 -175.27435302734375 -340.175537109375
   vertex -23.322565078735352 -175.3734130859375 -340.187255859375
  endloop
 endfacet
 facet normal -0.76977343013615718 -0.41049349069792052 0.48881894434550188
  outer loop
   vertex -23.797496795654297 -175.19148254394531 -340.15615844726562
   vertex -23.860372543334961 -174.93093872070312 -340.036376953125
   vertex -23.993432998657227 -175.055908203125 -340.35086059570312
  endloop
 endfacet
 facet normal -0.75001780278532326 -0.54431841934992009 0.37575358130226866
  outer loop
   vertex -23.914640426635742 -175.34700012207031 -340.61526489257812
   vertex -23.797496795654297 -175.19148254394531 -340.15615844726562
   vertex -23.993432998657227 -175.055908203125 -340.35086059570312
  endloop
 endfacet
 facet normal -0.39788127942159673 -0.58277426537117927 0.70856520032168935
  outer loop
   vertex -23.537675857543945 -175.311767578125 -340.10919189453125
   vertex -23.612163543701172 -175.05917358398438 -339.94326782226562
   vertex -23.797496795654297 -175.19148254394531 -340.15615844726562
  endloop
 endfacet
 facet normal -0.50977333729642815 -0.45786825129647379 0.72834594049556634
  outer loop
   vertex -23.612163543701172 -175.05917358398438 -339.94326782226562
   vertex -23.860372543334961 -174.93093872070312 -340.036376953125
   vertex -23.797496795654297 -175.19148254394531 -340.15615844726562
  endloop
 endfacet
 facet normal 0.0365933932298756 -0.73277143122648614 0.67949021563979184
  outer loop
   vertex -23.322565078735352 -175.3734130859375 -340.187255859375
   vertex -23.356939315795898 -175.18374633789062 -339.98086547851562
   vertex -23.537675857543945 -175.311767578125 -340.10919189453125
  endloop
 endfacet
 facet normal -0.16237299592473786 -0.57474236279411617 0.80206372976482443
  outer loop
   vertex -23.356939315795898 -175.18374633789062 -339.98086547851562
   vertex -23.612163543701172 -175.05917358398438 -339.94326782226562
   vertex -23.537675857543945 -175.311767578125 -340.10919189453125
  endloop
 endfacet
 facet normal 0.71049113994124513 -0.19670334529673114 0.67565533670212718
  outer loop
   vertex -23.196897506713867 -175.27435302734375 -340.175537109375
   vertex -23.214334487915039 -175.07537841796875 -340.09927368164062
   vertex -23.356939315795898 -175.18374633789062 -339.98086547851562
  endloop
 endfacet
 facet normal 0.43339474315588533 -0.62644694178786875 0.6478682163291164
  outer loop
   vertex -23.322565078735352 -175.3734130859375 -340.187255859375
   vertex -23.196897506713867 -175.27435302734375 -340.175537109375
   vertex -23.356939315795898 -175.18374633789062 -339.98086547851562
  endloop
 endfacet
 facet normal -0.79704843862855079 -9.2075518516803904e-05 0.603915373212082
  outer loop
   vertex -23.860372543334961 -174.93093872070312 -340.036376953125
   vertex -23.884994506835938 -174.76432800292969 -340.06884765625
   vertex -23.994125366210938 -174.84233093261719 -340.212890625
  endloop
 endfacet
 facet normal -0.82634795983457776 -0.30747034920049754 0.47181673734592683
  outer loop
   vertex -23.993432998657227 -175.055908203125 -340.35086059570312
   vertex -23.860372543334961 -174.93093872070312 -340.036376953125
   vertex -23.994125366210938 -174.84233093261719 -340.212890625
  endloop
 endfacet
 facet normal -0.34815780516896572 0.0067507529984563355 0.93741163318676723
  outer loop
   vertex -23.612163543701172 -175.05917358398438 -339.94326782226562
   vertex -23.683551788330078 -174.82951354980469 -339.971435546875
   vertex -23.860372543334961 -174.93093872070312 -340.036376953125
  endloop
 endfacet
 facet normal -0.40117410879535864 0.11775203008160064 0.90840177996518223
  outer loop
   vertex -23.683551788330078 -174.82951354980469 -339.971435546875
   vertex -23.884994506835938 -174.76432800292969 -340.06884765625
   vertex -23.860372543334961 -174.93093872070312 -340.036376953125
  endloop
 endfacet
 facet normal 0.091981978273887335 -0.11023377294340175 0.98964025331202277
  outer loop
   vertex -23.356939315795898 -175.18374633789062 -339.98086547851562
   vertex -23.422369003295898 -174.95039367675781 -339.94879150390625
   vertex -23.612163543701172 -175.05917358398438 -339.94326782226562
  endloop
 endfacet
 facet normal -0.034726210212905555 0.11102258441913485 0.99321099272669411
  outer loop
   vertex -23.422369003295898 -174.95039367675781 -339.94879150390625
   vertex -23.683551788330078 -174.82951354980469 -339.971435546875
   vertex -23.612163543701172 -175.05917358398438 -339.94326782226562
  endloop
 endfacet
 facet normal 0.67638582346227438 0.33776845951367168 0.65453394532065479
  outer loop
   vertex -23.214334487915039 -175.07537841796875 -340.09927368164062
   vertex -23.294610977172852 -174.88883972167969 -340.11257934570312
   vertex -23.422369003295898 -174.95039367675781 -339.94879150390625
  endloop
 endfacet
 facet normal 0.60920344176001651 0.062151066863445521 0.79057473488310115
  outer loop
   vertex -23.356939315795898 -175.18374633789062 -339.98086547851562
   vertex -23.214334487915039 -175.07537841796875 -340.09927368164062
   vertex -23.422369003295898 -174.95039367675781 -339.94879150390625
  endloop
 endfacet
 facet normal -0.77533315946593229 0.56550677488294998 0.28117713170537156
  outer loop
   vertex -23.994125366210938 -174.84233093261719 -340.212890625
   vertex -23.884994506835938 -174.76432800292969 -340.06884765625
   vertex -23.950193405151367 -174.74290466308594 -340.29171752929688
  endloop
 endfacet
 facet normal -0.24251831947393293 0.95637622012836099 0.16287845251146105
  outer loop
   vertex -23.761529922485352 -174.71052551269531 -340.200927734375
   vertex -23.950193405151367 -174.74290466308594 -340.29171752929688
   vertex -23.884994506835938 -174.76432800292969 -340.06884765625
  endloop
 endfacet
 facet normal 0.078097510265636647 0.89565206688090293 0.43784489717510161
  outer loop
   vertex -23.683551788330078 -174.82951354980469 -339.971435546875
   vertex -23.761529922485352 -174.71052551269531 -340.200927734375
   vertex -23.884994506835938 -174.76432800292969 -340.06884765625
  endloop
 endfacet
 facet normal 0.085881691410319705 0.89611244891928565 0.43543864547417399
  outer loop
   vertex -23.500455856323242 -174.77702331542969 -340.11557006835938
   vertex -23.761529922485352 -174.71052551269531 -340.200927734375
   vertex -23.683551788330078 -174.82951354980469 -339.971435546875
  endloop
 endfacet
 facet normal 0.28282991925465634 0.72807601296972868 0.62442978477368294
  outer loop
   vertex -23.422369003295898 -174.95039367675781 -339.94879150390625
   vertex -23.500455856323242 -174.77702331542969 -340.11557006835938
   vertex -23.683551788330078 -174.82951354980469 -339.971435546875
  endloop
 endfacet
 facet normal 0.38496897445281181 0.72400565959387941 0.57237635659134434
  outer loop
   vertex -23.294610977172852 -174.88883972167969 -340.11257934570312
   vertex -23.500455856323242 -174.77702331542969 -340.11557006835938
   vertex -23.422369003295898 -174.95039367675781 -339.94879150390625
  endloop
 endfacet
endsolid
